<?xml version="1.0" encoding="UTF-8"?>
<svg version="1.1" xmlns="http://www.w3.org/2000/svg" width="600" height="315">
<path d="M0 0 C0.87815233 -0.00085442 1.75630466 -0.00170885 2.66106766 -0.00258917 C5.60293856 -0.00423599 8.5447524 0.00126439 11.48661804 0.00672913 C13.59570311 0.0070112 15.70478828 0.00685288 17.81387329 0.00628662 C23.54067588 0.00599942 29.26745758 0.01188374 34.9942553 0.01886058 C40.9787029 0.0251069 46.96315096 0.02569893 52.94760132 0.02688599 C64.28054897 0.02999552 75.61348698 0.03820384 86.94643039 0.04823548 C99.8483552 0.05940832 112.75028048 0.06491002 125.65220892 0.06993091 C152.19296457 0.08038675 178.73371167 0.09797891 205.27445984 0.12025452 C205.3446322 26.2332442 205.39748832 52.3462197 205.42989635 78.45928478 C205.44534589 90.58483221 205.4663988 102.71032094 205.5007782 114.83583069 C205.53073915 125.40803659 205.55004874 135.98019997 205.55672532 146.55244714 C205.56062623 152.14708078 205.56975399 157.74159281 205.59165001 163.33618736 C205.61212099 168.60975757 205.61827228 173.8831569 205.61378288 179.15676308 C205.61460335 181.08476823 205.62050539 183.01277952 205.63207626 184.94075012 C205.74108925 204.05388229 203.29436152 220.91974219 189.27445984 235.12025452 C177.56944163 244.76591635 165.67442227 249.29523666 150.5045929 249.24050903 C149.19833342 249.24179067 149.19833342 249.24179067 147.86568487 249.2430982 C144.95455883 249.24474222 142.04349071 249.23924929 139.13237 249.23377991 C137.04284161 249.23349778 134.95331312 249.23365627 132.86378479 249.23422241 C127.19489071 249.23450938 121.52601778 249.22862888 115.85712862 249.22164845 C109.93141061 249.21539819 104.00569211 249.21480979 98.07997131 249.21362305 C86.86038801 249.21051468 75.64081445 249.20230792 64.42123544 249.19227356 C51.64745914 249.18109711 38.87368237 249.1755981 26.09990239 249.17057812 C-0.17525053 249.16012492 -26.4503948 249.14253501 -52.72554016 249.12025452 C-52.79573013 223.15491949 -52.84857723 197.18959876 -52.88097668 171.22418785 C-52.89642249 159.16705014 -52.91746825 147.1099715 -52.95185852 135.0528717 C-52.98183092 124.53961986 -53.00113176 114.02641082 -53.00780565 103.51311743 C-53.01170463 97.95030963 -53.02081998 92.38762424 -53.04273033 86.8248558 C-53.06321946 81.58000939 -53.06934901 76.33533483 -53.0648632 71.09045219 C-53.06568288 69.17415493 -53.07157398 67.25785141 -53.08315659 65.34158897 C-53.19561729 45.7614838 -50.87201364 28.87024648 -36.72554016 14.12025452 C-25.94072952 4.64621317 -14.26285605 -0.05078291 0 0 Z " fill="#0D5CAA" transform="translate(222.7255401611328,-0.1202545166015625)"/>
<path d="M0 0 C0.68692429 -0.00525696 1.37384857 -0.01051392 2.08158875 -0.01593018 C4.34409598 -0.02909163 6.60589423 -0.02040141 8.8684082 -0.01025391 C10.45156488 -0.01227692 12.03472064 -0.01519025 13.61787415 -0.01895142 C16.93576938 -0.02337052 20.25342208 -0.0169615 23.57128906 -0.00292969 C27.79990248 0.01409217 32.02794165 0.00436329 36.25653362 -0.01364708 C39.52790038 -0.02455615 42.79913408 -0.02100498 46.07050514 -0.0132637 C47.62804039 -0.01127766 49.18558814 -0.01366418 50.74310875 -0.02070236 C64.10941562 -0.06781914 74.52494538 1.39683099 84.98168945 10.38818359 C91.81056685 17.31964069 95.11355232 26.11458415 95.54418945 35.76318359 C95.23128764 44.82654656 92.19534361 54.28699705 85.76293945 60.89990234 C76.5007355 68.63871749 66.50117555 71.05891774 54.79418945 72.38818359 C43.8806289 73.64554125 35.4736618 76.82460689 28.2199707 85.49365234 C21.01370246 95.74942453 18.68785013 105.16153576 20.2668457 117.64208984 C22.38407682 127.8171326 28.01892862 135.876829 35.98168945 142.38818359 C38.55939843 144.04260408 41.12789591 145.28822034 43.98168945 146.38818359 C45.40481445 146.97599609 45.40481445 146.97599609 46.85668945 147.57568359 C51.18960135 148.70224069 55.52583896 149.05355451 59.98168945 149.38818359 C60.06805664 150.28537109 60.15442383 151.18255859 60.2434082 152.10693359 C61.81081897 166.02669156 65.09990625 178.3046763 72.6262207 190.22802734 C73.98168945 192.38818359 73.98168945 192.38818359 73.98168945 193.38818359 C44.28168945 193.38818359 14.58168945 193.38818359 -16.01831055 193.38818359 C-16.17952268 147.48750573 -16.17952268 147.48750573 -16.21362305 128.27490234 C-16.23737136 115.00123931 -16.26531205 101.72767774 -16.32006836 88.45410156 C-16.35992548 78.78765971 -16.38574086 69.12130005 -16.39466453 59.45477831 C-16.39988115 54.3359533 -16.41214944 49.21736342 -16.44123077 44.09861374 C-16.468382 39.28055334 -16.47675609 34.46282492 -16.47074127 29.64469528 C-16.47184164 27.87660925 -16.47979727 26.10851212 -16.49513245 24.34049225 C-16.51505622 21.92494179 -16.51024167 19.5106421 -16.49932861 17.09506226 C-16.51097998 16.39660482 -16.52263134 15.69814738 -16.53463578 14.97852457 C-16.47407871 10.01415899 -15.09874462 7.22560857 -12.01831055 3.38818359 C-8.08081206 0.23536705 -4.97063919 0.00958455 0 0 Z " fill="#F48025" transform="translate(250.018310546875,28.61181640625)"/>
<path d="M0 0 C13.76286291 6.41646987 24.43632993 19.85290257 29.72021484 33.91699219 C31.03606078 37.8918381 32.07729738 41.91821382 33 46 C33.19207031 46.78246094 33.38414062 47.56492188 33.58203125 48.37109375 C36.60419996 67.3796876 31.5849222 84.75358158 21.2734375 100.6640625 C19.61293191 102.89118611 17.87138002 104.94726975 16 107 C15.26136719 107.83015625 14.52273438 108.6603125 13.76171875 109.515625 C1.4311484 122.65250059 -14.77507631 129.73750597 -32.66455078 130.33642578 C-40.21808919 130.45793454 -46.52648086 130.30670712 -53 126 C-53.69222656 125.5875 -54.38445312 125.175 -55.09765625 124.75 C-61.56191415 120.49688078 -65.56732308 114.29803076 -68 107 C-68.72718516 97.26610725 -69.30470403 88.06825761 -63 80 C-56.8820685 73.2193912 -50.3673013 68.38799768 -41.109375 67.71875 C-38.91375508 67.63177496 -36.71794023 67.56147431 -34.52172852 67.49121094 C-21.92057662 66.9205091 -11.93539979 61.29333104 -3.3125 52.375 C5.17029257 42.31988203 6.88345006 29.87681443 6.24853516 17.2109375 C5.55470945 11.03875123 2.74867987 5.49735974 0 0 Z " fill="#F9AB33" transform="translate(346,40)"/>
<path d="M0 0 C5.61 0 11.22 0 17 0 C16.67 0.99 16.34 1.98 16 3 C16.75103332 5.32595385 16.75103332 5.32595385 17.9375 7.6875 C18.31777344 8.49574219 18.69804687 9.30398438 19.08984375 10.13671875 C19.39019531 10.75160156 19.69054687 11.36648438 20 12 C20.86646667 10.56988027 21.71781829 9.13059381 22.5625 7.6875 C23.03816406 6.88699219 23.51382812 6.08648437 24.00390625 5.26171875 C25.342681 2.90841521 25.342681 2.90841521 24 0 C29.94 0 35.88 0 42 0 C42 0.66 42 1.32 42 2 C41.34 2 40.68 2 40 2 C40 11.24 40 20.48 40 30 C40.66 30 41.32 30 42 30 C41.505 31.485 41.505 31.485 41 33 C36.71 33 32.42 33 28 33 C28 32.01 28 31.02 28 30 C28.66 30 29.32 30 30 30 C29.67 24.72 29.34 19.44 29 14 C26.36 19.61 23.72 25.22 21 31 C20.34 31 19.68 31 19 31 C16.36 25.06 13.72 19.12 11 13 C10.67 18.61 10.34 24.22 10 30 C10.66 30 11.32 30 12 30 C12 30.66 12 31.32 12 32 C8.04 32 4.08 32 0 32 C0 31.34 0 30.68 0 30 C0.66 30 1.32 30 2 30 C2 20.76 2 11.52 2 2 C1.34 2 0.68 2 0 2 C0 1.34 0 0.68 0 0 Z " fill="#0C5BAB" transform="translate(365,282)"/>
<path d="M0 0 C7.0228125 -0.12375 7.0228125 -0.12375 14.1875 -0.25 C15.65598389 -0.28641602 17.12446777 -0.32283203 18.63745117 -0.36035156 C19.80252197 -0.3703418 20.96759277 -0.38033203 22.16796875 -0.390625 C23.35672607 -0.41157227 24.5454834 -0.43251953 25.77026367 -0.45410156 C29.63573881 0.089385 31.24650481 1.29152022 34 4 C35.60183927 7.20367853 35.49374477 10.52376994 35 14 C32.93228896 17.27981751 31.22880989 18.84746007 28 21 C28.5053125 21.62648438 29.010625 22.25296875 29.53125 22.8984375 C30.1809375 23.71570313 30.830625 24.53296875 31.5 25.375 C32.1496875 26.18710937 32.799375 26.99921875 33.46875 27.8359375 C35 30 35 30 35 32 C30.71 32 26.42 32 22 32 C21.505 29.525 21.505 29.525 21 27 C19.56221552 24.61576027 17.97686043 23.02392854 16 21 C15.01 21 14.02 21 13 21 C12.814375 22.258125 12.62875 23.51625 12.4375 24.8125 C12.33308594 25.52019531 12.22867188 26.22789062 12.12109375 26.95703125 C11.86095201 29.2025342 11.86095201 29.2025342 13 32 C8.71 32 4.42 32 0 32 C0 21.44 0 10.88 0 0 Z M11 8 C11 9.65 11 11.3 11 13 C14.96 13 18.92 13 23 13 C23.66 11.68 24.32 10.36 25 9 C23.88873341 7.66098208 23.88873341 7.66098208 21.05859375 7.90234375 C19.86363281 7.91394531 18.66867188 7.92554688 17.4375 7.9375 C16.23996094 7.94652344 15.04242188 7.95554687 13.80859375 7.96484375 C12.41833984 7.98224609 12.41833984 7.98224609 11 8 Z " fill="#0C5BAA" transform="translate(224,282)"/>
<path d="M0 0 C0.66 0 1.32 0 2 0 C2 3.96 2 7.92 2 12 C1.34 12 0.68 12 0 12 C0 11.34 0 10.68 0 10 C-6.27 10 -12.54 10 -19 10 C-19 11.32 -19 12.64 -19 14 C-17.22880197 13.85866501 -15.45804713 13.71176792 -13.6875 13.5625 C-12.70136719 13.48128906 -11.71523438 13.40007812 -10.69921875 13.31640625 C-7.90624401 13.08187441 -7.90624401 13.08187441 -5 12 C-5 15.63 -5 19.26 -5 23 C-5.99 22.67 -6.98 22.34 -8 22 C-9.89212737 21.77820215 -11.78884472 21.59385985 -13.6875 21.4375 C-14.68136719 21.35371094 -15.67523438 21.26992188 -16.69921875 21.18359375 C-17.83810547 21.09271484 -17.83810547 21.09271484 -19 21 C-19 22.65 -19 24.3 -19 26 C-16.06217531 25.85924795 -13.12484829 25.7126162 -10.1875 25.5625 C-9.35412109 25.52318359 -8.52074219 25.48386719 -7.66210938 25.44335938 C-6.85966797 25.40146484 -6.05722656 25.35957031 -5.23046875 25.31640625 C-4.12288208 25.26141968 -4.12288208 25.26141968 -2.99291992 25.20532227 C-0.792505 25.05157859 -0.792505 25.05157859 2 24 C2 27.63 2 31.26 2 35 C-8.89 34.67 -19.78 34.34 -31 34 C-31 33.34 -31 32.68 -31 32 C-30.34 32 -29.68 32 -29 32 C-29 22.76 -29 13.52 -29 4 C-29.66 4 -30.32 4 -31 4 C-31 3.34 -31 2.68 -31 2 C-20.77 2 -10.54 2 0 2 C0 1.34 0 0.68 0 0 Z " fill="#0D5CAB" transform="translate(444,280)"/>
<path d="M0 0 C0.99 0 1.98 0 3 0 C3 3.96 3 7.92 3 12 C2.01 12 1.02 12 0 12 C0 11.34 0 10.68 0 10 C-5.94 10 -11.88 10 -18 10 C-18 11.32 -18 12.64 -18 14 C-14.37 14 -10.74 14 -7 14 C-7 13.34 -7 12.68 -7 12 C-6.34 12 -5.68 12 -5 12 C-4.67 15.63 -4.34 19.26 -4 23 C-8.62 22.34 -13.24 21.68 -18 21 C-18 22.65 -18 24.3 -18 26 C-12.06 26 -6.12 26 0 26 C0 25.34 0 24.68 0 24 C0.99 24 1.98 24 3 24 C3 27.63 3 31.26 3 35 C-7.89 34.67 -18.78 34.34 -30 34 C-30 33.34 -30 32.68 -30 32 C-29.34 32 -28.68 32 -28 32 C-28 22.76 -28 13.52 -28 4 C-28.66 4 -29.32 4 -30 4 C-30 3.34 -30 2.68 -30 2 C-20.1 2 -10.2 2 0 2 C0 1.34 0 0.68 0 0 Z " fill="#0D5BAB" transform="translate(179,280)"/>
<path d="M0 0 C3.12652058 2.26800878 5.20076428 4.01469731 6.5 7.75 C7.01282917 12.59989869 7.16735681 17.04453259 5.375 21.625 C1.36904295 26.16508466 -2.33014299 29.50708382 -8.609375 29.98828125 C-20.91880197 30.2392245 -20.91880197 30.2392245 -26.5 25.75 C-30.6329674 21.2907457 -31.82304156 17.92556913 -31.7109375 11.8046875 C-31.22312169 7.05300019 -29.04660725 4.29660725 -25.75 1 C-17.95947905 -4.39343758 -8.25094968 -4.81685276 0 0 Z M-20.5 8.75 C-21.92041821 11.59083641 -21.81452272 13.60477278 -21.5 16.75 C-19.6329009 19.05275556 -18.14352259 20.42823871 -15.5 21.75 C-11.52991497 22.12453632 -9.1413106 22.07747775 -5.5625 20.25 C-3.06334995 17.22072721 -2.7540097 15.50272434 -3.01953125 11.65625 C-3.42351097 9.47895565 -3.42351097 9.47895565 -5.5625 7.25 C-11.09946993 4.4226111 -15.60540878 5.0070773 -20.5 8.75 Z " fill="#0C5BAA" transform="translate(294.5,284.25)"/>
<path d="M0 0 C4.95 0 9.9 0 15 0 C15.33 1.65 15.66 3.3 16 5 C17.32 5 18.64 5 20 5 C22.18490007 2.32357511 22.18490007 2.32357511 22 0 C26.62 0 31.24 0 36 0 C34.09944803 3.80110395 32.08087842 6.50294589 29.375 9.75 C28.55773437 10.73484375 27.74046875 11.7196875 26.8984375 12.734375 C26.27195312 13.48203125 25.64546875 14.2296875 25 15 C29.09610615 20.50854468 29.09610615 20.50854468 33.375 25.875 C35 28 35 28 35 30 C35.66 30 36.32 30 37 30 C37 30.66 37 31.32 37 32 C32.05 32 27.1 32 22 32 C21.67 30.68 21.34 29.36 21 28 C20.34 27.01 19.68 26.02 19 25 C16.96758273 25.63979849 16.96758273 25.63979849 15 27 C14.67 28.65 14.34 30.3 14 32 C9.05 32 4.1 32 -1 32 C0.96255112 28.07489776 3.30558513 25.05116363 6.125 21.75 C6.59292969 21.19570313 7.06085938 20.64140625 7.54296875 20.0703125 C8.69175328 18.71052674 9.84539653 17.35484835 11 16 C8.13592056 12.12217423 5.27774568 8.27459671 2.125 4.625 C0 2 0 2 0 0 Z " fill="#0C5BAB" transform="translate(451,282)"/>
<path d="M0 0 C4.37464796 -0.14564235 8.7486696 -0.23419143 13.125 -0.3125 C14.3625 -0.35439453 15.6 -0.39628906 16.875 -0.43945312 C27.15494302 -0.5776244 27.15494302 -0.5776244 30.80078125 2.3046875 C33.5668665 5.69473869 34.07654492 7.63693984 34 12 C32.79553946 15.68423223 31.66376928 17.47597162 28.625 19.875 C23.12455654 21.58203418 17.71354867 21.22888103 12 21 C12.33 24.63 12.66 28.26 13 32 C8.71 32 4.42 32 0 32 C0.495 30.515 0.495 30.515 1 29 C1.09447646 27.043446 1.13071717 25.08383255 1.1328125 23.125 C1.13410156 21.97515625 1.13539062 20.8253125 1.13671875 19.640625 C1.13091797 17.83851563 1.13091797 17.83851563 1.125 16 C1.12886719 14.79859375 1.13273437 13.5971875 1.13671875 12.359375 C1.13542969 11.20953125 1.13414063 10.0596875 1.1328125 8.875 C1.13168457 7.82054687 1.13055664 6.76609375 1.12939453 5.6796875 C1.11597653 2.89775656 1.11597653 2.89775656 0 0 Z M12 8 C12 9.65 12 11.3 12 13 C15.63 13 19.26 13 23 13 C23.33 11.35 23.66 9.7 24 8 C20.04 8 16.08 8 12 8 Z " fill="#0C5BAA" transform="translate(111,282)"/>
<path d="M0 0 C0.99 0.33 1.98 0.66 3 1 C5.20959253 1.15109093 7.42300047 1.24873801 9.63671875 1.31640625 C10.93544922 1.35830078 12.23417969 1.40019531 13.57226562 1.44335938 C14.94400761 1.48316987 16.31575244 1.52288216 17.6875 1.5625 C19.07097645 1.60570835 20.45444027 1.64932339 21.83789062 1.69335938 C25.22515719 1.79958028 28.61249799 1.90162358 32 2 C32 1.34 32 0.68 32 0 C32.99 0 33.98 0 35 0 C35 3.96 35 7.92 35 12 C34.01 12 33.02 12 32 12 C32 11.34 32 10.68 32 10 C27.545 10.495 27.545 10.495 23 11 C22.97306679 14.27088814 22.95319336 17.54155522 22.9375 20.8125 C22.92912109 21.74126953 22.92074219 22.67003906 22.91210938 23.62695312 C22.90888672 24.51962891 22.90566406 25.41230469 22.90234375 26.33203125 C22.89710693 27.15421143 22.89187012 27.9763916 22.88647461 28.82348633 C22.91258476 31.18172596 22.91258476 31.18172596 24 34 C19.71 34 15.42 34 11 34 C11.33 33.01 11.66 32.02 12 31 C12.08143855 29.37280518 12.1075302 27.74248281 12.09765625 26.11328125 C12.09443359 25.17548828 12.09121094 24.23769531 12.08789062 23.27148438 C12.07951172 22.29501953 12.07113281 21.31855469 12.0625 20.3125 C12.05798828 19.32443359 12.05347656 18.33636719 12.04882812 17.31835938 C12.03704303 14.87884526 12.02059011 12.43945311 12 10 C10.56208484 10.14168137 9.1246763 10.28851043 7.6875 10.4375 C6.88699219 10.51871094 6.08648437 10.59992188 5.26171875 10.68359375 C2.83912821 10.95265693 2.83912821 10.95265693 0 12 C0 8.04 0 4.08 0 0 Z " fill="#0C5BAA" transform="translate(185,280)"/>
<path d="M0 0 C4.29 0 8.58 0 13 0 C13 0.66 13 1.32 13 2 C12.34 2 11.68 2 11 2 C11 9.26 11 16.52 11 24 C14.238125 23.855625 17.47625 23.71125 20.8125 23.5625 C21.82932861 23.51939697 22.84615723 23.47629395 23.89379883 23.43188477 C24.69841553 23.39377686 25.50303223 23.35566895 26.33203125 23.31640625 C27.15421143 23.27974854 27.9763916 23.24309082 28.82348633 23.20532227 C31.17905178 23.06572228 31.17905178 23.06572228 34 22 C34 25.63 34 29.26 34 33 C22.78 32.67 11.56 32.34 0 32 C0 21.44 0 10.88 0 0 Z " fill="#0D5CAA" transform="translate(306,282)"/>
<path d="M0 0 C4.62 0 9.24 0 14 0 C14 0.66 14 1.32 14 2 C13.34 2 12.68 2 12 2 C12.11817917 5.95121228 12.24242233 9.90218229 12.37231445 13.85302734 C12.43698251 15.85894807 12.49683106 17.86502228 12.55664062 19.87109375 C12.61948242 21.75634766 12.61948242 21.75634766 12.68359375 23.6796875 C12.72025146 24.84226074 12.75690918 26.00483398 12.79467773 27.20263672 C12.81821659 29.9535501 12.81821659 29.9535501 14 32 C9.38 32 4.76 32 0 32 C0 31.34 0 30.68 0 30 C0.66 30 1.32 30 2 30 C2 20.76 2 11.52 2 2 C1.34 2 0.68 2 0 2 C0 1.34 0 0.68 0 0 Z " fill="#0C5BAB" transform="translate(345,282)"/>
<path d="M0 0 C-1.66443426 3.65695413 -3.85128718 6.19976194 -6.5625 9.12109375 C-10.30841001 14.01724243 -10.36521369 18.8868889 -10.375 24.8125 C-10.39949219 25.58142578 -10.42398437 26.35035156 -10.44921875 27.14257812 C-10.48535823 34.28012619 -8.27096609 39.37046032 -3.625 44.75 C6.06823965 53.05849113 15.4837519 53.78957468 27.69287109 53.19091797 C42.67279123 51.95130976 55.64597314 45.03861678 66.1315918 34.55639648 C69.71659367 31 69.71659367 31 73 31 C59.82715458 45.22387032 44.53835767 55.23918051 24.68359375 56.2578125 C16.42482947 56.53430679 9.10996638 56.73012317 2 52 C0.96166016 51.38125 0.96166016 51.38125 -0.09765625 50.75 C-6.56191415 46.49688078 -10.56732308 40.29803076 -13 33 C-13.82778687 21.91948146 -13.78402552 13.00022648 -6.40234375 4.06640625 C-2.5801097 0 -2.5801097 0 0 0 Z " fill="#DD8028" transform="translate(291,114)"/>
<path d="M0 0 C13.67067545 6.37349058 22.59266875 18.79427973 29 32 C30.35155598 36.15430186 31.26512485 39.62544001 31 44 C29.15170551 41.22755827 28.32638836 39.18674421 27.3125 36.0625 C23.71231534 26.00589563 17.50571326 13.16547438 7.76171875 7.7578125 C6.88966797 7.38269531 6.88966797 7.38269531 6 7 C6.2165625 7.66644531 6.433125 8.33289063 6.65625 9.01953125 C8.71878013 15.84688794 9.37149571 21.88654513 9 29 C8.67 29 8.34 29 8 29 C7.87044922 27.71029297 7.87044922 27.71029297 7.73828125 26.39453125 C6.61225427 16.92144189 4.29216696 8.58433392 0 0 Z " fill="#EA851D" transform="translate(346,40)"/>
<path d="M0 0 C0.66 0.33 1.32 0.66 2 1 C-8.94250927 12.81558182 -22.65032404 24.37033129 -39.5871582 25.11352539 C-40.48265381 25.10828857 -41.37814941 25.10305176 -42.30078125 25.09765625 C-43.27724609 25.09443359 -44.25371094 25.09121094 -45.25976562 25.08789062 C-46.26716797 25.07951172 -47.27457031 25.07113281 -48.3125 25.0625 C-49.33923828 25.05798828 -50.36597656 25.05347656 -51.42382812 25.04882812 C-53.94927882 25.03708184 -56.47460905 25.02065565 -59 25 C-59 24.67 -59 24.34 -59 24 C-57.87464844 23.97421875 -56.74929688 23.9484375 -55.58984375 23.921875 C-32.77484322 23.17679334 -16.13103051 16.13103051 0 0 Z " fill="#F0851A" transform="translate(362,144)"/>
<path d="M0 0 C-1.34260917 2.93050271 -2.87148538 5.20913591 -5 7.625 C-5.515625 8.21539062 -6.03125 8.80578125 -6.5625 9.4140625 C-7.67451212 10.64090196 -8.82916568 11.82916568 -10 13 C-9.47470631 8.8911959 -8.33192009 6.74480159 -5.5625 3.6875 C-4.94503906 2.99011719 -4.32757813 2.29273437 -3.69140625 1.57421875 C-2 0 -2 0 0 0 Z " fill="#EC961F" transform="translate(291,114)"/>
<path d="M0 0 C0.66 0 1.32 0 2 0 C3.5078125 1.75 3.5078125 1.75 5.125 4 C5.66382813 4.7425 6.20265625 5.485 6.7578125 6.25 C7.16773438 6.8275 7.57765625 7.405 8 8 C7.01 8 6.02 8 5 8 C0 2.65116279 0 2.65116279 0 0 Z " fill="#DD7E2C" transform="translate(274,160)"/>
</svg>
